<svg width="18" height="18" viewBox="0 0 18 18" fill="none" xmlns="http://www.w3.org/2000/svg">
<path id="Collecting Icon" d="M10.5 2.25C10.5 3.07843 9.82843 3.75 9 3.75C8.17157 3.75 7.5 3.07843 7.5 2.25C7.5 1.42157 8.17157 0.75 9 0.75C9.82843 0.75 10.5 1.42157 10.5 2.25ZM17.25 9C17.25 9.82843 16.5784 10.5 15.75 10.5C14.9216 10.5 14.25 9.82843 14.25 9C14.25 8.17157 14.9216 7.5 15.75 7.5C16.5784 7.5 17.25 8.17157 17.25 9ZM10.5 15.75C10.5 16.5784 9.82843 17.25 9 17.25C8.17157 17.25 7.5 16.5784 7.5 15.75C7.5 14.9216 8.17157 14.25 9 14.25C9.82843 14.25 10.5 14.9216 10.5 15.75ZM3.75 9C3.75 9.82843 3.07843 10.5 2.25 10.5C1.42157 10.5 0.75 9.82843 0.75 9C0.75 8.17157 1.42157 7.5 2.25 7.5C3.07843 7.5 3.75 8.17157 3.75 9Z" stroke="#06A25A" stroke-width="1.5"/>
</svg>
