<svg width="18" height="18" viewBox="0 0 18 18" fill="none" xmlns="http://www.w3.org/2000/svg">
<g id="[Medium] User Icon">
<path id="User Icon" d="M15.2992 13.1C14.3992 12.2 13.3992 11.6 12.1992 11.1C13.8992 10.1 14.9992 8.2 14.9992 6C14.9992 5.4 14.8992 4.7 14.6992 4.1C13.8992 1.7 11.6992 0 8.99922 0C6.29922 0 4.09922 1.7 3.29922 4.1C3.09922 4.7 2.99922 5.4 2.99922 6C2.99922 8.1 4.09922 10 5.79922 11.1C4.59922 11.5 3.59922 12.2 2.69922 13.1C2.29922 13.5 1.99922 13.9 1.69922 14.3C1.99922 14.7 2.29922 15.1 2.69922 15.5C4.29922 17 6.59922 18 8.99922 18C11.3992 18 13.6992 17 15.2992 15.4C15.6992 15 15.9992 14.6 16.2992 14.2C15.9992 13.8 15.6992 13.4 15.2992 13.1ZM4.49922 6C4.49922 3.7 6.29922 1.8 8.49922 1.5C8.69922 1.5 8.79922 1.5 8.99922 1.5C9.19922 1.5 9.29922 1.5 9.49922 1.5C11.6992 1.7 13.4992 3.7 13.4992 6C13.4992 8.5 11.4992 10.5 8.99922 10.5C6.49922 10.5 4.49922 8.5 4.49922 6ZM8.99922 16.5C6.89922 16.5 4.99922 15.6 3.59922 14.3C4.99922 12.9 6.89922 12 8.99922 12C11.0992 12 12.9992 12.9 14.2992 14.2C12.9992 15.6 11.0992 16.5 8.99922 16.5Z" fill="black"/>
</g>
</svg>
