<svg width="227" height="35" viewBox="0 0 227 35" fill="none" xmlns="http://www.w3.org/2000/svg">
<path d="M17.8578 35C8.01007 35 0 27.1485 0 17.5C0 7.85145 8.01007 0 17.8578 0C27.7056 0 35.7156 7.84957 35.7156 17.5C35.7156 27.1504 27.7056 35 17.8578 35ZM17.8578 1.13025C8.64634 1.13025 1.15336 8.47309 1.15336 17.5C1.15336 26.5269 8.64634 33.8698 17.8578 33.8698C27.0693 33.8698 34.5623 26.5269 34.5623 17.5C34.5623 8.47309 27.0693 1.13025 17.8578 1.13025Z" fill="#04B5A6"/>
<path d="M29.4688 9.4375C28.5269 9.4375 27.7773 10.191 27.7773 11.0952C27.7773 11.3401 27.8349 11.585 27.9695 11.8299L26.3163 14.4483C26.1433 14.4294 25.9703 14.4483 25.7781 14.4859L23.9135 12.5645C23.9327 12.4703 23.9327 12.3761 23.9327 12.2631C23.9327 11.2836 23.1062 10.4736 22.0874 10.4736C21.0686 10.4736 20.242 11.2836 20.242 12.282C20.242 12.8471 20.5111 13.3745 20.934 13.6948L17.6277 22.9628C17.5508 22.944 17.4547 22.944 17.3778 22.944C17.1087 22.944 16.8588 23.0005 16.6281 23.0947L10.6114 15.0322C10.8613 14.712 11.0151 14.3352 11.0151 13.902C11.0151 12.8848 10.1693 12.0559 9.1313 12.0559C8.09328 12.0559 7.24749 12.8848 7.24749 13.902C7.24749 14.2222 7.3436 14.5425 7.49738 14.8062L5.19067 18.4418H5.17144C4.21031 18.4418 3.44141 19.2141 3.44141 20.1372C3.44141 21.0602 4.22953 21.8325 5.17144 21.8325C6.11335 21.8325 6.88226 21.0791 6.88226 20.156C6.88226 19.8923 6.80537 19.6474 6.67081 19.4025L8.97752 15.748H9.1313C9.28509 15.748 9.41964 15.7292 9.5542 15.6915L15.7054 23.9423C15.5901 24.1872 15.5132 24.451 15.5132 24.7335C15.5132 25.7319 16.3398 26.5419 17.3586 26.5419C18.3774 26.5419 19.204 25.7319 19.204 24.7335C19.204 24.2626 19.0117 23.8482 18.7234 23.5279L22.1066 14.0715C22.3565 14.0715 22.6064 14.015 22.8178 13.9208L24.4902 15.635V15.6539C24.2595 16.5392 24.7977 17.4434 25.7012 17.6695C25.8358 17.7071 25.9895 17.726 26.1241 17.726C26.4317 17.726 26.72 17.6506 27.0276 17.5188C27.412 17.2927 27.6811 16.9348 27.7965 16.5015C27.8734 16.1625 27.8541 15.8046 27.7196 15.4843L29.4496 12.7529H29.4688C30.4108 12.7529 31.1604 11.9994 31.1604 11.0952C31.1604 10.1722 30.3915 9.4375 29.4688 9.4375ZM5.9019 19.4214L6.01724 19.5909C6.17102 19.7793 6.22869 19.9676 6.22869 20.156C6.22869 20.7211 5.74812 21.1921 5.17144 21.1921C4.59476 21.1921 4.1142 20.7211 4.1142 20.156C4.1142 19.5909 4.57554 19.12 5.17144 19.12C5.22911 19.1388 5.26756 19.1388 5.306 19.1576L5.51745 19.1953L7.95872 15.3336C8.07406 15.4278 8.20862 15.5032 8.34318 15.5597L5.9019 19.4214ZM29.4304 12.1124C29.4176 12.1124 29.4176 12.1124 29.4304 12.1124C29.3727 12.1124 29.3343 12.0936 29.2958 12.0936L29.0844 12.0559L26.9315 15.4655L27.0276 15.635C27.1237 15.7857 27.2006 16.0494 27.1237 16.3508C26.9699 16.8971 26.4124 17.2174 25.855 17.0855C25.2975 16.9348 24.9707 16.3885 25.1245 15.8234L25.1822 15.7104L25.2591 15.522L23.356 13.5629C23.4522 13.4687 23.5483 13.3557 23.6252 13.2427L25.5667 15.2394L25.7589 15.1641C25.9703 15.0887 26.1818 15.0699 26.3548 15.1076L26.5854 15.1641L28.6999 11.8299L28.5846 11.6603C28.45 11.4531 28.3924 11.2836 28.3924 11.0952C28.3924 10.5301 28.8537 10.078 29.4304 10.078C30.0071 10.078 30.4684 10.5301 30.4684 11.0952C30.4684 11.6603 30.0071 12.1124 29.4304 12.1124Z" fill="#04B5A6"/>
<path d="M37.0801 12.2461H38.5602L43.5004 24.0007L48.4407 12.2461H49.9208L44.2309 25.5265H42.7508L37.0801 12.2461Z" fill="#13232A"/>
<path d="M53.9378 7.93146C53.9378 9.32543 51.7656 9.32543 51.7656 7.93146C51.7656 6.53749 53.9378 6.51865 53.9378 7.93146ZM52.1501 12.2076V25.5445H53.4957V12.2076H52.1501Z" fill="#13232A"/>
<path d="M66.6443 14.6726C65.2795 13.4859 63.9339 13.2787 62.4153 13.2787C60.3008 13.2598 58.2632 14.0322 58.3209 15.7275C58.3786 17.4983 60.743 17.8562 62.4345 18.1387C64.8566 18.5343 68.1629 18.9487 68.0283 22.0381C67.9514 24.9767 64.8374 25.7491 62.4538 25.7491C60.0702 25.7491 57.7058 24.8637 56.5332 23.093L57.5136 22.2265C58.6477 23.8088 60.6661 24.4869 62.473 24.4869C64.1261 24.4869 66.6251 24.0537 66.702 21.9627C66.7596 20.0601 64.5106 19.6834 62.2808 19.3255C59.6473 18.8922 57.033 18.4024 57.0138 15.7464C56.9945 13.1468 59.6473 12.0166 62.3961 12.0354C64.376 12.0354 66.1061 12.5817 67.4517 13.8061L66.6443 14.6726Z" fill="#13232A"/>
<path d="M72.8147 7.93146C72.8147 9.32543 70.6426 9.32543 70.6426 7.93146C70.6426 6.53749 72.8147 6.51865 72.8147 7.93146ZM71.027 12.2076V25.5445H72.3726V12.2076H71.027Z" fill="#13232A"/>
<path d="M79.3133 8.25V12.2624H83.9267V13.3738H79.3133V21.4739C79.3133 23.2823 79.6977 24.5444 81.8122 24.5444C82.4658 24.5444 83.2155 24.3372 83.8883 23.9981L84.3496 25.0719C83.5038 25.4674 82.6388 25.75 81.793 25.75C78.9096 25.75 77.9869 24.0735 77.9869 21.4739V13.3738H75.1035V12.2624H77.9869V8.38186L79.3133 8.25Z" fill="#13232A"/>
<path d="M86.4062 18.9133C86.4062 14.6938 89.4819 12 93.2879 12C97.094 12 100.17 14.6938 100.17 18.9133C100.17 23.1329 97.094 25.7137 93.2879 25.7137C89.4819 25.7137 86.4062 23.1518 86.4062 18.9133ZM98.8625 18.9133C98.8625 15.4661 96.3636 13.2433 93.2879 13.2433C90.2123 13.2433 87.7134 15.4661 87.7134 18.9133C87.7134 22.3606 90.2123 24.4327 93.2879 24.4327C96.3636 24.4327 98.8625 22.3606 98.8625 18.9133Z" fill="#13232A"/>
<path d="M104.532 12.2461L104.59 14.6196C105.436 12.8112 107.358 12.1142 109.088 12.1142C110.107 12.0954 111.087 12.3591 111.991 12.8866L111.395 13.9603C110.684 13.527 109.876 13.3387 109.088 13.3387C106.57 13.3575 104.609 15.3543 104.609 17.7843V25.5265H103.264V12.2461H104.532Z" fill="#13232A"/>
<path d="M124.351 12.2816H127.561V25.5432H124.409L124.236 23.6029C123.467 25.1664 121.352 25.9199 119.853 25.9388C115.855 25.9576 112.875 23.5464 112.875 18.8936C112.875 14.2407 115.97 11.9237 119.93 11.9614C121.737 11.9614 123.467 12.7902 124.236 14.1089L124.351 12.2816ZM116.22 18.8936C116.22 21.4178 118.007 22.9248 120.218 22.9248C125.485 22.9248 125.485 14.8812 120.218 14.8812C118.007 14.8812 116.22 16.3694 116.22 18.8936Z" fill="#04B5A6"/>
<path d="M140.345 25.5423V18.6101C140.345 16.5945 139.211 15.0687 137.077 15.0687C134.943 15.0687 133.617 16.7641 133.617 18.7797V25.5611H130.311V12.2431H133.309L133.521 14.0515C134.886 12.7328 136.27 12.0547 137.961 12.0547C141.152 12.0547 143.689 14.3905 143.689 18.5536V25.5235H140.345V25.5423Z" fill="#04B5A6"/>
<path d="M157.298 12.2816H160.508V25.5432H157.356L157.183 23.6029C156.414 25.1664 154.299 25.9199 152.8 25.9388C148.802 25.9576 145.822 23.5464 145.822 18.8936C145.822 14.2407 148.917 11.9237 152.877 11.9614C154.684 11.9614 156.414 12.7902 157.183 14.1089L157.298 12.2816ZM149.186 18.8936C149.186 21.4178 150.974 22.9248 153.185 22.9248C158.452 22.9248 158.452 14.8812 153.185 14.8812C150.955 14.8812 149.186 16.3694 149.186 18.8936Z" fill="#04B5A6"/>
<path d="M166.659 6.74219V25.542H163.334V6.74219H166.659Z" fill="#04B5A6"/>
<path d="M183.498 12.2812L175.233 31.081H171.561L174.079 25.3168L168.678 12.2812H172.58L174.637 18.0078L175.925 21.7377L177.328 18.0832L179.788 12.2812H183.498Z" fill="#04B5A6"/>
<path d="M189.978 8.53516V12.3026H193.707V15.1283H189.939V20.8549C189.939 22.117 190.651 22.7386 191.689 22.7386C192.208 22.7386 192.823 22.5691 193.303 22.343L194.245 25.131C193.284 25.5077 192.496 25.6772 191.477 25.6961C188.536 25.8091 186.614 24.1702 186.614 20.8549V15.1283H184.096V12.3026H186.633V8.89307L189.978 8.53516Z" fill="#04B5A6"/>
<path d="M199.858 8.53229C199.858 11.0942 195.898 11.0942 195.898 8.53229C195.918 5.98924 199.858 5.98924 199.858 8.53229ZM196.206 12.2244V25.5425H199.551V12.2244H196.206Z" fill="#04B5A6"/>
<path d="M214.178 23.8485C212.621 25.3555 210.968 25.9395 208.969 25.9395C205.047 25.9395 201.779 23.6225 201.779 18.9131C201.779 14.2037 205.047 11.8867 208.969 11.8867C210.891 11.8867 212.371 12.433 213.851 13.8458L211.737 16.031C210.948 15.334 209.949 14.9761 209.026 14.9761C206.777 14.9761 205.124 16.5961 205.124 18.8943C205.124 21.4185 206.873 22.7748 208.969 22.7748C210.045 22.7748 211.102 22.4734 211.929 21.6634L214.178 23.8485Z" fill="#04B5A6"/>
<path d="M224.501 15.8063C223.539 14.9209 222.444 14.6195 221.156 14.6195C219.56 14.6195 218.695 15.1093 218.695 15.9382C218.695 16.767 219.484 17.2756 221.214 17.3886C223.77 17.5582 227 18.1233 227 21.6459C227 23.9818 225.058 25.9974 221.175 25.9974C219.041 25.9974 216.888 25.6395 214.928 23.6238L216.581 21.288C217.542 22.3429 219.733 23.1152 221.252 23.1529C222.521 23.1717 223.693 22.5313 223.693 21.5706C223.693 20.6098 222.924 20.2708 221.002 20.1766C218.445 19.9882 215.408 19.0652 215.408 16.07C215.408 13.0749 218.638 11.9258 221.117 11.9258C223.232 11.9258 224.827 12.3214 226.384 13.6777L224.501 15.8063Z" fill="#04B5A6"/>
</svg>